<?xml version="1.0" standalone="no"?>
<!DOCTYPE svg PUBLIC "-//W3C//DTD SVG 20010904//EN"
 "http://www.w3.org/TR/2001/REC-SVG-20010904/DTD/svg10.dtd">
<svg version="1.0" xmlns="http://www.w3.org/2000/svg"
 width="494.000000pt" height="494.000000pt" viewBox="0 0 494.000000 494.000000"
 preserveAspectRatio="xMidYMid meet">
<metadata>
Created by potrace 1.11, written by Peter Selinger 2001-2013
</metadata>
<g transform="translate(0.000000,494.000000) scale(0.100000,-0.100000)"
fill="#000000" stroke="none">
<path d="M585 4925 c-146 -32 -276 -106 -382 -219 -83 -88 -125 -158 -167
-273 l-31 -88 -3 -1850 c-2 -1820 -2 -1851 18 -1930 66 -268 275 -477 545
-545 80 -20 101 -20 1930 -18 l1850 3 77 26 c126 43 204 93 304 194 78 78 99
106 137 186 83 172 77 13 77 2062 0 1786 0 1825 -20 1903 -34 135 -91 236
-195 340 -99 100 -177 150 -303 193 l-77 26 -1850 2 c-1498 1 -1861 -1 -1910
-12z m3691 -296 c89 -16 162 -55 230 -123 68 -68 107 -141 123 -230 15 -81 15
-3513 0 -3605 -15 -93 -53 -167 -123 -237 -70 -70 -144 -108 -237 -123 -89
-15 -3509 -15 -3598 0 -93 15 -167 53 -237 123 -68 68 -107 141 -123 230 -8
42 -11 587 -11 1815 0 1918 -2 1824 57 1933 33 61 125 147 190 179 26 13 73
29 103 35 75 17 3537 19 3626 3z"/>
<path d="M2480 4219 c-492 -59 -917 -379 -1161 -874 -132 -269 -189 -536 -189
-890 0 -517 145 -930 436 -1244 253 -272 561 -409 959 -427 311 -14 598 69
826 240 106 80 244 224 327 340 l62 89 0 83 c0 46 -3 84 -7 84 -5 -1 -28 -26
-53 -56 -65 -80 -210 -217 -293 -275 -96 -68 -188 -113 -294 -146 -81 -25
-102 -27 -263 -27 -186 -1 -235 7 -362 58 -299 121 -517 439 -608 885 -37 183
-45 281 -44 561 0 373 32 587 125 825 121 311 309 506 549 571 85 22 269 23
362 0 261 -62 485 -260 624 -553 43 -91 117 -311 134 -400 l13 -63 43 0 44 0
0 600 0 600 -42 0 c-42 0 -44 -1 -72 -56 -59 -112 -118 -132 -252 -84 -366
132 -475 159 -663 165 -64 2 -154 -1 -201 -6z"/>
</g>
</svg>
