<?xml version="1.0" encoding="UTF-8" standalone="no"?>
<svg
   xmlns:dc="http://purl.org/dc/elements/1.1/"
   xmlns:cc="http://creativecommons.org/ns#"
   xmlns:rdf="http://www.w3.org/1999/02/22-rdf-syntax-ns#"
   xmlns:svg="http://www.w3.org/2000/svg"
   xmlns="http://www.w3.org/2000/svg"
   xmlns:sodipodi="http://sodipodi.sourceforge.net/DTD/sodipodi-0.dtd"
   xmlns:inkscape="http://www.inkscape.org/namespaces/inkscape"
   inkscape:version="1.0 (4035a4fb49, 2020-05-01)"
   sodipodi:docname="корзина.svg"
   id="svg13"
   version="1.1"
   viewBox="0 0 512 512">
  <metadata
     id="metadata19">
    <rdf:RDF>
      <cc:Work
         rdf:about="">
        <dc:format>image/svg+xml</dc:format>
        <dc:type
           rdf:resource="http://purl.org/dc/dcmitype/StillImage" />
        <dc:title></dc:title>
      </cc:Work>
    </rdf:RDF>
  </metadata>
  <defs
     id="defs17" />
  <sodipodi:namedview
     inkscape:current-layer="_1"
     inkscape:window-maximized="1"
     inkscape:window-y="-8"
     inkscape:window-x="-8"
     inkscape:cy="270.67047"
     inkscape:cx="27.836252"
     inkscape:zoom="0.84369231"
     showgrid="false"
     id="namedview15"
     inkscape:window-height="705"
     inkscape:window-width="1366"
     inkscape:pageshadow="2"
     inkscape:pageopacity="0"
     guidetolerance="10"
     gridtolerance="10"
     objecttolerance="10"
     borderopacity="1"
     bordercolor="#666666"
     pagecolor="#ffffff" />
  <g
     id="_1"
     data-name="1">
    <path
       style="stroke:#2b2b2b;stroke-opacity:1;fill:#2b2b2b;fill-opacity:1"
       id="path4"
       d="M397.78,316H192.65A15,15,0,0,1,178,304.33L143.46,153.85a15,15,0,0,1,14.62-18.36H432.35A15,15,0,0,1,447,153.85L412.4,304.33A15,15,0,0,1,397.78,316ZM204.59,286H385.84l27.67-120.48H176.91Z" />
    <path
       style="stroke:#2b2b2b;stroke-opacity:1;fill:#2b2b2b;fill-opacity:1"
       id="path6"
       d="M222,450a57.48,57.48,0,1,1,57.48-57.48A57.54,57.54,0,0,1,222,450Zm0-84.95a27.48,27.48,0,1,0,27.48,27.47A27.5,27.5,0,0,0,222,365.05Z" />
    <path
       style="stroke:#2b2b2b;stroke-opacity:1;fill:#2b2b2b;fill-opacity:1"
       id="path8"
       d="M368.42,450a57.48,57.48,0,1,1,57.48-57.48A57.54,57.54,0,0,1,368.42,450Zm0-84.95a27.48,27.48,0,1,0,27.48,27.47A27.5,27.5,0,0,0,368.42,365.05Z" />
    <path
       style="stroke:#2b2b2b;stroke-opacity:1;fill:#2b2b2b;fill-opacity:1"
       id="path10"
       d="M158.08,165.49a15,15,0,0,1-14.23-10.26L118.14,78H70.7a15,15,0,1,1,0-30H129a15,15,0,0,1,14.23,10.26l29.13,87.49a15,15,0,0,1-14.23,19.74Z" />
  </g>
</svg>
