<?xml version="1.0" encoding="UTF-8" standalone="no"?>
<svg
   xmlns:dc="http://purl.org/dc/elements/1.1/"
   xmlns:cc="http://creativecommons.org/ns#"
   xmlns:rdf="http://www.w3.org/1999/02/22-rdf-syntax-ns#"
   xmlns:svg="http://www.w3.org/2000/svg"
   xmlns="http://www.w3.org/2000/svg"
   xmlns:sodipodi="http://sodipodi.sourceforge.net/DTD/sodipodi-0.dtd"
   xmlns:inkscape="http://www.inkscape.org/namespaces/inkscape"
   width="100"
   height="100"
   viewBox="0 0 26.458333 26.458334"
   version="1.1"
   id="svg8"
   inkscape:version="1.0 (4035a4fb49, 2020-05-01)"
   sodipodi:docname="сектор1.svg">
  <defs
     id="defs2">
    <clipPath
       clipPathUnits="userSpaceOnUse"
       id="clipPath122">
      <path
         id="path124"
         style="fill:#ff0000;fill-opacity:1;fill-rule:nonzero;stroke:none"
         d="m 10,10 v 80 h 47.828125 c -0.144363,-2.213448 -0.304227,-4.425617 -0.474609,-6.636719 -0.906016,-2.210914 -1.554924,-4.511252 -1.691407,-6.917969 -0.100671,-1.775156 0.177302,-2.785345 0.488282,-4.453124 0.206558,-1.697012 -0.161876,-3.372389 -0.259766,-5.056641 -0.0028,-0.0484 3.66e-4,-0.06412 -0.002,-0.109375 -0.723445,0.183038 -1.476127,0.238783 -2.212891,0.363281 -3.663885,0.619193 -3.643948,-3.026513 0,-3.753906 0.576246,-0.115011 1.169728,-0.163946 1.728516,-0.345703 0.646643,-0.210354 1.280175,-0.477674 1.865234,-0.824219 2.241933,-1.32796 2.400368,-1.855951 4.40625,-3.375 0.284198,-0.215222 0.617113,-0.727788 0.916016,-0.691406 0.0427,0.0052 0.08586,0.02265 0.126953,0.05273 1.097488,0.803388 1.662471,2.152303 2.494141,3.228516 -0.238447,0.761514 -0.505156,1.515232 -0.714844,2.285156 -0.131758,0.483753 -0.232313,0.974529 -0.337891,1.464844 0.187583,0.103762 0.367541,0.228518 0.523438,0.402343 0.641593,0.715389 0.823614,1.62369 1.023437,2.509766 0.144189,3.045638 0.289985,6.090434 0.371094,9.138672 0.03624,1.360781 0.136684,3.074788 0.07813,4.634766 0.693356,0.04987 0.906002,0.131962 -0.01563,0.24414 -0.01705,0.341263 -0.03135,0.687059 -0.06836,1.003906 L 62.89253,82.525387 c -0.176435,0.01948 -0.352861,0.03911 -0.529297,0.05859 8.86e-4,-0.05401 -7.84e-4,-0.10998 0,-0.164062 l -0.05469,-0.01172 c -0.01506,-0.003 -0.01671,-0.0048 -0.03125,-0.0078 0.0048,0.931696 0.01154,1.779388 0.01367,2.654297 0.495739,0.942692 1.014031,1.868563 1.519531,2.779296 0.451933,0.814226 0.587386,1.551035 0.535156,2.166016 H 82.195312 V 10 Z m 53.84375,57.089844 c -0.0038,0.04117 -0.01206,0.08186 -0.01563,0.123047 -0.0031,0.03636 0.09664,-0.06515 0.06641,-0.08594 -0.02012,-0.01383 -0.03113,-0.02349 -0.05078,-0.03711 z m 0.0918,1.294922 c -0.01249,-1.33e-4 -0.05264,0.0091 -0.126953,0.0332 -0.01934,0.01443 -0.02617,0.01908 -0.04492,0.0332 0.03772,-0.01345 0.110237,-0.03123 0.132812,-0.04102 0.03637,-0.01577 0.05155,-0.02526 0.03906,-0.02539 z m -1.652344,8.035156 c -0.0022,1.655589 -0.0105,3.311132 -0.0098,4.966797 7.53e-4,0.270635 9.91e-4,0.352009 0.002,0.580078 0.03343,-0.0037 0.05268,-0.0082 0.08789,-0.01172 0.01688,-1.815582 -0.02377,-3.671836 -0.08008,-5.535156 z" />
    </clipPath>
    <clipPath
       clipPathUnits="userSpaceOnUse"
       id="clipPath132">
      <path
         id="path134"
         style="fill:#ff0000;fill-opacity:1;fill-rule:nonzero;stroke:none"
         d="m 30,30 v 40 h 26.167969 c -0.06967,-1.022691 -0.217921,-2.042046 -0.277344,-3.064453 -0.0028,-0.0484 3.66e-4,-0.06412 -0.002,-0.109375 -0.723445,0.183038 -1.476127,0.238783 -2.212891,0.363281 -3.663885,0.619193 -3.643948,-3.026513 0,-3.753906 0.576246,-0.115011 1.169728,-0.163946 1.728516,-0.345703 0.646643,-0.210354 1.280175,-0.477674 1.865234,-0.824219 2.241933,-1.32796 2.400368,-1.855951 4.40625,-3.375 0.105408,-0.07982 0.221348,-0.207719 0.335938,-0.326172 V 30 Z" />
    </clipPath>
    <clipPath
       clipPathUnits="userSpaceOnUse"
       id="clipPath976">
      <circle
         style="fill:#e6e6e6;fill-rule:evenodd;stroke-width:0.337968"
         id="circle978"
         cx="13.229167"
         cy="13.229167"
         r="5.2916665" />
    </clipPath>
  </defs>
  <sodipodi:namedview
     id="base"
     pagecolor="#ffffff"
     bordercolor="#666666"
     borderopacity="1.0"
     inkscape:pageopacity="0.0"
     inkscape:pageshadow="2"
     inkscape:zoom="1.7924186"
     inkscape:cx="65.29587"
     inkscape:cy="82.020774"
     inkscape:document-units="px"
     inkscape:current-layer="layer1"
     inkscape:document-rotation="0"
     showgrid="false"
     units="px"
     inkscape:window-width="1366"
     inkscape:window-height="705"
     inkscape:window-x="-8"
     inkscape:window-y="-8"
     inkscape:window-maximized="1"
     inkscape:pagecheckerboard="true" />
  <metadata
     id="metadata5">
    <rdf:RDF>
      <cc:Work
         rdf:about="">
        <dc:format>image/svg+xml</dc:format>
        <dc:type
           rdf:resource="http://purl.org/dc/dcmitype/StillImage" />
        <dc:title></dc:title>
      </cc:Work>
    </rdf:RDF>
  </metadata>
  <g
     inkscape:label="Слой 1"
     inkscape:groupmode="layer"
     id="layer1">
    <path
       d="M 18.50223,2.8259897 A 10.403499,10.403499 0 0 0 8.1173345,13.229488 10.403499,10.403499 0 0 0 18.50223,23.632988 v -5.28805 a 5.1152165,5.1152165 0 0 1 -5.096846,-5.11545 5.1152165,5.1152165 0 0 1 5.096846,-5.1154491 z"
       style="fill:#2b2b2b;fill-opacity:1;fill-rule:evenodd;stroke:#2b2b2b;stroke-width:0.359669;stroke-opacity:1"
       id="path1589" />
  </g>
</svg>
